# xmcd
#
# Track frame offsets:
#	150
#	14097
#	31806
#	43526
#	57995
#	75823
#	91702
#	106136
#	121236
#	135987
#	149781
#	162921
#	178784
#	194748
#	208647
#	221524
#	240805
#	261968
#	272831
#	289321
#
# Disc length: 4088 seconds
# Revision: 0
# Processed by: cddbd v1.5.2PL0 Copyright (c) Steve Scherf et al.
# Submitted via: dBpowerAMP V12.0
#
DISCID=1d0ff614
DTITLE=Various Artist - The Country Jukebox Collection: Lookin' for Love
DYEAR=2019
DGENRE=Country
TTITLE0=Randy Travis - On the Other Hand
TTITLE1=Conway Twitty - Somebody's Needin' Somebody
TTITLE2=Emmylou Harris - If I Could Only Win Your Love (with Herb Pedersen)
TTITLE3=The Judds - Mama He's Crazy
TTITLE4=Linda Ronstadt - Blue Bayo
TTITLE5=Nitty Gritty Dirt Band - Modern Day Romance
TTITLE6=Eddie Rabbitt - The Best Year Of My Life
TTITLE7=Dwight Yoakam - Little Ways
TTITLE8=Bellamy Brothers - Let Your Love Flow
TTITLE9=John Anderson - Swingin'
TTITLE10=Conway Twitty - Slow Hand
TTITLE11=Johnny Lee - Lookin' for Love
TTITLE12=Randy Travis - Forever and Ever, Amen
TTITLE13=Emmylou Harris - Two More Bottles of Wine
TTITLE14=T.G. Sheppard - I'll Be Coming Back for More
TTITLE15=Crystal Gayle - Cry
TTITLE16=Gary Morris - The Wind Beneath My Wings
TTITLE17=The Everly Brothers - Devoted to You
TTITLE18=Randy Travis - I Told You So
TTITLE19=Emmylou Harris - To Know Him is to Love Him (with Dolly Parton and Linda Ronstadt)
EXTD=
EXTT0=
EXTT1=
EXTT2=
EXTT3=
EXTT4=
EXTT5=
EXTT6=
EXTT7=
EXTT8=
EXTT9=
EXTT10=
EXTT11=
EXTT12=
EXTT13=
EXTT14=
EXTT15=
EXTT16=
EXTT17=
EXTT18=
EXTT19=
PLAYORDER=
